<?xml version="1.0" encoding="utf-8"?>
<!-- Generator: Adobe Illustrator 25.0.0, SVG Export Plug-In . SVG Version: 6.00 Build 0)  -->
<svg version="1.1" id="Layer_1" xmlns="http://www.w3.org/2000/svg" xmlns:xlink="http://www.w3.org/1999/xlink" x="0px" y="0px"
	 viewBox="0 0 512 512" style="enable-background:new 0 0 512 512;" xml:space="preserve">
<style type="text/css">
	.st0{fill-rule:evenodd;clip-rule:evenodd;fill:#31B603;}
</style>
<g transform="translate(-159 -265)">
	<g transform="translate(-769.565 -100.879)">
		<g id="ngicon">
			<path class="st0" d="M1221.2,793.1c-11.8,2.5-24.1,3.8-36.6,3.8c-97.1,0-176-78.9-176-176c0-14.7-11.9-26.7-26.7-26.7
				c-14.7,0-26.7,12-26.7,26.7c0,126.6,102.8,229.3,229.3,229.3c16.3,0,32.3-1.7,47.6-5c14.4-3.1,23.6-17.2,20.6-31.6
				C1249.7,799.2,1235.6,790,1221.2,793.1L1221.2,793.1z M1209.4,446.6c85.4,12.1,151.2,85.5,151.2,174.3
				c0,62.8-32.9,117.9-82.4,149.1c-12.5,7.8-16.2,24.3-8.4,36.8c7.8,12.5,24.3,16.2,36.8,8.4c64.5-40.6,107.3-112.4,107.3-194.2
				c0-115.6-85.8-211.4-197.1-227.1c-14.6-2.1-28.1,8.1-30.1,22.7C1184.6,431.1,1194.8,444.6,1209.4,446.6L1209.4,446.6z
				 M1021.2,555.2c18.9-46.8,57.3-83.7,105.1-100.5c13.9-4.9,21.2-20.1,16.3-34s-20.1-21.2-34-16.3
				c-62.3,21.9-112.3,69.9-136.9,130.9c-5.5,13.7,1.1,29.2,14.8,34.7C1000.2,575.5,1015.7,568.9,1021.2,555.2L1021.2,555.2z"/>
		</g>
	</g>
</g>
</svg>
