<?xml version="1.0" encoding="utf-8"?>
<!-- Generator: Adobe Illustrator 25.0.0, SVG Export Plug-In . SVG Version: 6.00 Build 0)  -->
<svg version="1.1" id="Layer_1" xmlns="http://www.w3.org/2000/svg" xmlns:xlink="http://www.w3.org/1999/xlink" x="0px" y="0px"
	 viewBox="0 0 30 30" style="enable-background:new 0 0 30 30;" xml:space="preserve">
<style type="text/css">
	.st0{fill-rule:evenodd;clip-rule:evenodd;fill:#33B44A;}
</style>
<g transform="translate(-159 -265)">
	<g transform="translate(-769.565 -100.879)">
		<g id="ngicon">
			<path class="st0" d="M945.9,391.9c-0.8,0.2-1.6,0.2-2.4,0.2c-6.3,0-11.4-5.1-11.4-11.4c0-0.9-0.8-1.7-1.7-1.7
				c-1,0-1.7,0.8-1.7,1.7c0,8.2,6.6,14.8,14.8,14.8c1.1,0,2.1-0.1,3.1-0.3c0.9-0.2,1.5-1.1,1.3-2
				C947.8,392.3,946.9,391.7,945.9,391.9L945.9,391.9z M945.2,369.6c5.5,0.8,9.8,5.5,9.8,11.3c0,4.1-2.1,7.6-5.3,9.6
				c-0.8,0.5-1,1.6-0.5,2.4c0.5,0.8,1.6,1,2.4,0.5c4.2-2.6,6.9-7.3,6.9-12.5c0-7.5-5.5-13.6-12.7-14.7c-0.9-0.1-1.8,0.5-1.9,1.5
				S944.2,369.4,945.2,369.6L945.2,369.6z M933,376.6c1.2-3,3.7-5.4,6.8-6.5c0.9-0.3,1.4-1.3,1.1-2.2c-0.3-0.9-1.3-1.4-2.2-1.1
				c-4,1.4-7.3,4.5-8.8,8.5c-0.4,0.9,0.1,1.9,1,2.2C931.7,377.9,932.7,377.5,933,376.6L933,376.6z"/>
		</g>
	</g>
</g>
</svg>
