<?xml version="1.0" encoding="utf-8"?>
<!-- Generator: Adobe Illustrator 25.0.0, SVG Export Plug-In . SVG Version: 6.00 Build 0)  -->
<svg version="1.1" id="Layer_1" xmlns="http://www.w3.org/2000/svg" xmlns:xlink="http://www.w3.org/1999/xlink" x="0px" y="0px"
	 viewBox="0 0 512 512" style="enable-background:new 0 0 512 512;" xml:space="preserve">
<style type="text/css">
	.st0{fill:#FFFFFF;}
</style>
<path class="st0" d="M426.1,111.9c0,5.1,3.6-9.7-47.5,180.9c-2.8-11-2,12.8-2-195.7C391.2,74.7,426.1,85.3,426.1,111.9L426.1,111.9z
	"/>
<path class="st0" d="M360,31.4V256c-60.1-104.1-33.6-58.2-62.8-108.7V31.4c0-17.3,14.1-31.4,31.4-31.4C346.2,0,360,14.2,360,31.4
	L360,31.4z"/>
<path class="st0" d="M323.8,226.2l-24.4-24.4c-21.2-21.2-49.1-33.4-82.4-33.4l-55.7-92.8c-8.6-14.9-3.6-34.1,11.5-42.8
	c15.2-8.7,34.3-3.4,42.9,11.5C300.7,185.4,257.2,110.9,323.8,226.2z"/>
<path class="st0" d="M368.7,345.4c0,51.6-20.5,101.2-57.1,137.9c-17.9,17.8-41.6,28-66.8,28.7c-4,0,15.5,0-43.8,0
	c-63.4,0-115.1-51.6-115.1-115.1V238.4c0-5.2,4.2-9.4,9.4-9.4c0.8,0,1.5,0,2.5-0.3c2.6,1,25.8,0.7,41.5,23.4
	c10.1,13.6,9.4,29.3,9.4,39.1c0,35.3,15.3,68.9,41.8,92.2c28.8,25.2,73.8,4.5,73.8-33.5c0-42.2,1.6-52-5.7-68.6
	c-6.6-14.9-14.9-21.3-26-31.4c-3.8-3,0.9-2.2-76.7-2.2c-10.2-18.2-29.4-31.9-52.3-34.7c0.9-8.9,5.7-17.4,13.9-22.8
	c13.6-6.6-1.6-5.2,101.3-5.2c26,0,50.5,10.1,68.9,28.5l68,68l5.1,8.9C365.6,308.1,368.7,324.4,368.7,345.4L368.7,345.4z"/>
</svg>
