<?xml version="1.0" encoding="utf-8"?>
<!-- Generator: Adobe Illustrator 25.0.0, SVG Export Plug-In . SVG Version: 6.00 Build 0)  -->
<svg version="1.1" id="Layer_1" xmlns="http://www.w3.org/2000/svg" xmlns:xlink="http://www.w3.org/1999/xlink" x="0px" y="0px"
	 viewBox="0 0 512 512" style="enable-background:new 0 0 512 512;" xml:space="preserve">
<style type="text/css">
	.st0{fill-rule:evenodd;clip-rule:evenodd;fill:#FFFFFF;}
	.st1{fill:none;stroke:#FFFFFF;stroke-width:11.3386;stroke-miterlimit:10;}
</style>
<path class="st0" d="M125.1,447.7c-57.5-42-91.2-108.4-91.2-179.6c0-66,29-128,79.5-170.4l-0.9,19.9c-0.2,3.8,2.8,7.1,6.7,7.3
	c3.8,0.2,7.1-2.8,7.3-6.7l1.5-35c0.2-3.8-2.8-7.1-6.7-7.3l-35-1.5c-3.9-0.2-7.1,2.8-7.3,6.7c-0.2,3.8,2.8,7.1,6.7,7.3l16.3,0.7
	c-52.3,45-82.2,110-82.2,179c0,75.7,35.9,146.2,97,190.8c3.1,2.3,7.5,1.6,9.7-1.5C128.9,454.3,128.2,450,125.1,447.7z M466.6,375.1
	c16.3-32.1,25.5-68.4,25.5-106.9c0-75.7-35.9-146.2-97.1-190.8c-3.1-2.3-7.5-1.6-9.7,1.5c-2.3,3.1-1.6,7.5,1.5,9.7
	C444.2,130.5,478,197,478,268.1c0,36.2-8.7,70.4-24,100.5c-13.7,26.9-32.7,50.7-55.5,69.8l0.9-19.9c0.2-3.9-2.8-7.1-6.7-7.3
	c-3.8-0.2-7.1,2.8-7.3,6.7l-1.5,35c-0.2,3.8,2.8,7.1,6.7,7.3l35,1.5c3.8,0.2,7.1-2.8,7.3-6.7c0.2-3.9-2.8-7.1-6.7-7.3l-16.3-0.7
	C433.3,427.1,452.6,402.7,466.6,375.1z"/>
<g>
	<path class="st0" d="M383.3,221.1c-84-17.8-161.6-17.6-254.8,0.4l-17.3,8.6l10.1,21.5c103.8,16.2,112.3,59.6,113.2,150.5l0,0l0,0
		l22,18.5l20.9-18.5l0,0l0,0c0.9-91,9.5-134.4,113.2-150.5l11.8-16.3L383.3,221.1z M256,285.1c-14.2,0-25.8-11.6-25.8-25.8
		c0-14.2,11.6-25.8,25.8-25.8c14.2,0,25.8,11.6,25.8,25.8C281.8,273.5,270.2,285.1,256,285.1z"/>
	<g>
		<path class="st0" d="M320.7,115.7c-3.7,9.7-9.5,18.4-16.8,25.5c36.7,13.8,65.9,43.1,79.5,79.9c3.6,9.7,6.1,19.9,7.4,30.5
			c0.7,5.4,1,10.9,1,16.5c0,67.6-49.5,123.7-114.2,134l0,0c-7,1.1-14.1,1.7-21.4,1.7c-7.3,0-14.5-0.6-21.5-1.7l0,0
			c-64.8-10.3-114.2-66.4-114.2-134c0-5.6,0.3-11.1,1-16.5c1.3-10.5,3.7-20.5,7.2-30.1c13.1-35.6,40.6-64.3,75.6-78.8
			c0.3-0.1,0.6-0.2,0.9-0.4c-7.5-6.9-13.5-15.5-17.5-25.1c-0.2,0.1-0.4,0.2-0.6,0.3c-56.9,26.2-96.5,83.8-96.5,150.5
			c0,91.5,74.2,165.6,165.6,165.6S421.8,359.4,421.8,268C421.6,199.6,380,140.8,320.7,115.7z"/>
	</g>
</g>
<g>
	<path class="st0" d="M308.5,69c-14.5-14.5-34.3-22.7-54.8-22.7s-40.3,8.2-54.8,22.7c-2.7,2.7-2.7,7.2,0,9.9c2.7,2.7,7.2,2.7,9.9,0
		c12-12,27.9-18.6,44.9-18.6s32.9,6.6,44.9,18.6c2.7,2.7,7.2,2.7,9.9,0C311.3,76.2,311.3,71.7,308.5,69z M284.5,93.1
		c-8.1-8.1-19.2-12.7-30.7-12.7c-11.5,0-22.6,4.6-30.7,12.7c-2.7,2.7-2.7,7.2,0,9.9c2.7,2.7,7.2,2.7,9.9,0
		c5.6-5.6,12.9-8.6,20.8-8.6s15.2,3,20.8,8.6c2.7,2.7,7.2,2.7,9.9,0C287.2,100.2,287.2,95.8,284.5,93.1z"/>
	<path class="st0" d="M253.7,133.3c5.2,0,9.5-4.3,9.5-9.5s-4.3-9.5-9.5-9.5s-9.5,4.3-9.5,9.5C244.3,129,248.5,133.3,253.7,133.3z"/>
</g>
<circle class="st1" cx="253.1" cy="90.7" r="71.5"/>
</svg>
