<?xml version="1.0" encoding="utf-8"?>
<!-- Generator: Adobe Illustrator 25.0.0, SVG Export Plug-In . SVG Version: 6.00 Build 0)  -->
<svg version="1.1" id="Layer_1" xmlns="http://www.w3.org/2000/svg" xmlns:xlink="http://www.w3.org/1999/xlink" x="0px" y="0px"
	 viewBox="0 0 512 512" style="enable-background:new 0 0 512 512;" xml:space="preserve">
<style type="text/css">
	.st0{fill:#E53935;}
</style>
<g id="Layer_2_1_">
	<path class="st0" d="M256,21.3C126.4,21.3,21.3,126.4,21.3,256S126.4,490.7,256,490.7S490.7,385.6,490.7,256
		C490.5,126.5,385.5,21.5,256,21.3z M346.5,316.4c8.5,8.2,8.7,21.7,0.5,30.2c-8.2,8.5-21.7,8.7-30.2,0.5c-0.2-0.2-0.4-0.3-0.5-0.5
		L256,286.2l-60.3,60.4c-8.5,8.2-22,8-30.2-0.5c-8-8.3-8-21.4,0-29.6l60.3-60.4l-60.3-60.4c-8.5-8.2-8.7-21.7-0.5-30.2
		c8.2-8.5,21.7-8.7,30.2-0.5c0.2,0.2,0.4,0.3,0.5,0.5l60.3,60.4l60.3-60.4c8.2-8.5,21.7-8.7,30.2-0.5c8.5,8.2,8.7,21.7,0.5,30.2
		c-0.2,0.2-0.3,0.4-0.5,0.5L286.2,256L346.5,316.4z"/>
</g>
</svg>
