<?xml version="1.0" encoding="utf-8"?>
<!-- Generator: Adobe Illustrator 25.0.0, SVG Export Plug-In . SVG Version: 6.00 Build 0)  -->
<svg version="1.1" id="Capa_1" xmlns="http://www.w3.org/2000/svg" xmlns:xlink="http://www.w3.org/1999/xlink" x="0px" y="0px"
	 viewBox="0 0 236.9 236.9" style="enable-background:new 0 0 236.9 236.9;" xml:space="preserve">
<style type="text/css">
	.st0{fill:#30B703;}
</style>
<g>
	<path class="st0" d="M118.5,0C53.1,0,0,53.1,0,118.5s53.1,118.5,118.5,118.5s118.5-53.1,118.5-118.5S183.8,0,118.5,0z M118.5,221.9
		c-57,0-103.5-46.4-103.5-103.5S61.4,15,118.5,15s103.5,46.4,103.5,103.5S175.5,221.9,118.5,221.9z"/>
	<path class="st0" d="M118.5,31.3c-48,0-87.1,39.1-87.1,87.1s39.1,87.1,87.1,87.1s87.1-39.1,87.1-87.1S166.5,31.3,118.5,31.3z
		 M118.5,195.6c-42.5,0-77.1-34.6-77.1-77.1s34.6-77.1,77.1-77.1s77.1,34.6,77.1,77.1S161,195.6,118.5,195.6z"/>
	<path class="st0" d="M92.6,95.3c4.6,0,7.8,2.8,7.8,11.4h12.8C112.8,91.5,105.7,84,92.6,84c-12.4,0-21.2,5.9-21.2,22.5v24
		c0,16.5,8.7,22.5,21.2,22.5c4.8,0,8.5-2.6,12-6.5l1.9,5.6h6.7v-34.4H91.4v10.6h9v4.1c0,5.8-3,9.3-7.8,9.3c-5.1,0-8.4-2-8.4-9.5
		v-27.3C84.3,97.4,87.5,95.3,92.6,95.3z"/>
	<path class="st0" d="M144.3,84c-12.4,0-21.2,5.9-21.2,22.5v24c0,16.5,8.7,22.5,21.2,22.5c12.4,0,21.2-5.9,21.2-22.5v-24
		C165.4,89.9,156.7,84,144.3,84z M152.6,132.1c0,7.4-3.2,9.5-8.4,9.5s-8.4-2-8.4-9.5v-27.3c0-7.4,3.2-9.5,8.4-9.5s8.4,2,8.4,9.5
		V132.1z"/>
</g>
</svg>
