<?xml version="1.0" encoding="utf-8"?>
<!-- Generator: Adobe Illustrator 25.0.0, SVG Export Plug-In . SVG Version: 6.00 Build 0)  -->
<svg version="1.1" id="Layer_1" xmlns="http://www.w3.org/2000/svg" xmlns:xlink="http://www.w3.org/1999/xlink" x="0px" y="0px"
	 viewBox="0 0 512 512" style="enable-background:new 0 0 512 512;" xml:space="preserve">
<style type="text/css">
	.st0{fill:#6E309F;}
</style>
<g>
	<circle class="st0" cx="256" cy="299.7" r="25.6"/>
	<circle class="st0" cx="256" cy="195.2" r="25.6"/>
	<path class="st0" d="M256,0c-51.2,0-92.8,41.6-92.8,92.8v263.5c0,18.8,15.3,34.1,34.1,34.1h117.3c18.8,0,34.1-15.3,34.1-34.1V92.8
		C348.8,41.6,307.2,0,256,0z M256,342.4c-23.5,0-42.7-19.1-42.7-42.7s19.1-42.7,42.7-42.7c23.5,0,42.7,19.1,42.7,42.7
		S279.5,342.4,256,342.4z M256,237.9c-23.5,0-42.7-19.1-42.7-42.7s19.1-42.7,42.7-42.7c23.5,0,42.7,19.1,42.7,42.7
		S279.5,237.9,256,237.9z M256,133.3c-23.5,0-42.7-19.1-42.7-42.7S232.5,48,256,48c23.5,0,42.7,19.1,42.7,42.7
		S279.5,133.3,256,133.3z"/>
	<circle class="st0" cx="256" cy="90.7" r="25.6"/>
	<path class="st0" d="M143.3,48c5.8,0,9.9,5.7,8.1,11.2c-6.4,20-5.3,32.3-5.3,62.7c0,6.7-7.5,10.9-13.1,7.2
		c-6.9-4.6-11.4-12.4-11.4-21.3V87.5c0-8.3-3.1-16.3-8.7-22.4H99.5c-4.5,0-8.5-3.4-8.8-8c-0.3-5,3.6-9.1,8.5-9.1L143.3,48z"/>
	<path class="st0" d="M146.1,161.1v65.3c0,6.7-7.5,10.9-13.1,7.2c-6.9-4.6-11.4-12.4-11.4-21.3V192c0-8.3-3.1-16.3-8.7-22.4H99.5
		c-4.5,0-8.5-3.4-8.8-8c-0.3-5,3.6-9.1,8.5-9.1h38.4C142.3,152.5,146.1,156.4,146.1,161.1z"/>
	<path class="st0" d="M99.5,257.1h38.1c4.7,0,8.5,3.8,8.5,8.5v65.3c0,6.7-7.5,10.9-13.1,7.2c-6.9-4.6-11.4-12.4-11.4-21.3v-20.3
		c0-8.3-3.1-16.3-8.7-22.4H99.2c-4.9,0-8.8-4.1-8.5-9.1C91,260.5,94.9,257.1,99.5,257.1L99.5,257.1z"/>
	<path class="st0" d="M365.9,92.8c0-11.6-1.8-22.9-5.3-33.7c-1.8-5.5,2.4-11.1,8.1-11.1h43.8c4.5,0,8.5,3.4,8.8,8
		c0.3,5-3.6,9.1-8.5,9.1h-13.7c-5.6,6.1-8.7,14.1-8.7,22.4v20.3c0,8.9-4.5,16.7-11.4,21.3c-5.6,3.7-13.1-0.5-13.1-7.2V92.8z"/>
	<path class="st0" d="M421.3,161.6c-0.3,4.5-4.3,8-8.8,8h-13.4c-5.6,6.1-8.7,14.1-8.7,22.4v20.3c0,8.9-4.5,16.7-11.4,21.3
		c-5.6,3.7-13.1-0.5-13.1-7.2v-65.3c0-4.7,3.8-8.5,8.5-8.5h38.4C417.7,152.5,421.6,156.7,421.3,161.6z"/>
	<path class="st0" d="M421.3,266.2c-0.3,4.5-4.3,8-8.8,8h-13.4c-5.6,6.1-8.7,14.1-8.7,22.4v20.3c0,8.9-4.5,16.7-11.4,21.3
		c-5.6,3.7-13.1-0.5-13.1-7.2v-65.3c0-4.7,3.8-8.5,8.5-8.5h38.4C417.7,257.1,421.6,261.2,421.3,266.2L421.3,266.2z"/>
	<path class="st0" d="M322,419.1c-4,8.8-13,15-23.3,15h-85.3c-10.4,0-19.3-6.2-23.3-15c-2.6-5.7,1.7-12.2,8-12
		c25.6,0.7,90.3,0.7,115.9,0C320.2,406.9,324.6,413.4,322,419.1z"/>
	<path class="st0" d="M297.6,459.7v43.7c0,4.7-3.8,8.5-8.5,8.5h-66.1c-4.7,0-8.5-3.8-8.5-8.5v-43.7c0-4.7,3.8-8.5,8.5-8.5h66.1
		C293.8,451.2,297.6,455,297.6,459.7z"/>
</g>
</svg>
