<?xml version="1.0" encoding="utf-8"?>
<!-- Generator: Adobe Illustrator 25.0.0, SVG Export Plug-In . SVG Version: 6.00 Build 0)  -->
<svg version="1.1" id="Layer_1" xmlns="http://www.w3.org/2000/svg" xmlns:xlink="http://www.w3.org/1999/xlink" x="0px" y="0px"
	 viewBox="0 0 512 512" style="enable-background:new 0 0 512 512;" xml:space="preserve">
<style type="text/css">
	.st0{fill:#424242;}
	.st1{fill:#E53935;}
</style>
<path class="st0" d="M139.1,181l64-40c3.8-2.3,8.7-1.2,11,2.6c0.8,1.3,1.2,2.7,1.2,4.2v16h40c39.7,0,72,32.3,72,72v152
	c0,4.4-3.6,8-8,8h-32c-4.4,0-8-3.6-8-8v-152c0-13.2-10.8-24-24-24h-40v16c0,4.4-3.6,8-8,8c-1.5,0-3-0.4-4.2-1.2l-64-40
	c-3.7-2.3-4.9-7.3-2.5-11C137.2,182.5,138.1,181.6,139.1,181L139.1,181z"/>
<g>
	<path class="st1" d="M256,79.6c97.2,0,175.9,78.8,175.9,175.9S353.2,431.5,256,431.5S80.1,352.7,80.1,255.6S158.8,79.6,256,79.6
		 M256,31.4c-30.2,0-59.6,5.9-87.3,17.6c-26.7,11.3-50.7,27.4-71.2,48c-20.6,20.6-36.7,44.5-48,71.2c-11.7,27.7-17.6,57-17.6,87.3
		s5.9,59.6,17.6,87.3c11.3,26.7,27.4,50.7,48,71.2c20.6,20.6,44.5,36.7,71.2,48c27.7,11.7,57,17.6,87.3,17.6s59.6-5.9,87.3-17.6
		c26.7-11.3,50.7-27.4,71.2-48c20.6-20.6,36.7-44.5,48-71.2c11.7-27.7,17.6-57,17.6-87.3s-5.9-59.6-17.6-87.3
		c-11.3-26.7-27.4-50.7-48-71.2c-20.6-20.6-44.5-36.7-71.2-48C315.6,37.4,286.2,31.4,256,31.4L256,31.4z"/>
</g>
</svg>
